<svg width="50" height="50" viewBox="0 0 50 50" fill="none" xmlns="http://www.w3.org/2000/svg">
<path d="M25.0001 47.3962C12.6459 47.3962 2.60425 37.3545 2.60425 25.0003C2.60425 12.6462 12.6459 2.60449 25.0001 2.60449C37.3542 2.60449 47.3959 12.6462 47.3959 25.0003C47.3959 37.3545 37.3542 47.3962 25.0001 47.3962ZM25.0001 5.72949C14.3751 5.72949 5.72925 14.3753 5.72925 25.0003C5.72925 35.6253 14.3751 44.2712 25.0001 44.2712C35.6251 44.2712 44.2709 35.6253 44.2709 25.0003C44.2709 14.3753 35.6251 5.72949 25.0001 5.72949Z" fill="#101828"/>
<path d="M18.75 45.3125H16.6667C15.8125 45.3125 15.1042 44.6042 15.1042 43.75C15.1042 42.8958 15.7708 42.2083 16.625 42.1875C13.3542 31.0208 13.3542 18.9792 16.625 7.8125C15.7708 7.79167 15.1042 7.10417 15.1042 6.25C15.1042 5.39583 15.8125 4.6875 16.6667 4.6875H18.75C19.25 4.6875 19.7292 4.9375 20.0208 5.33333C20.3125 5.75 20.3958 6.27083 20.2292 6.75C16.3125 18.5208 16.3125 31.4792 20.2292 43.2708C20.3958 43.75 20.3125 44.2708 20.0208 44.6875C19.7292 45.0625 19.25 45.3125 18.75 45.3125Z" fill="#101828"/>
<path d="M31.25 45.3126C31.0833 45.3126 30.9167 45.2918 30.75 45.2293C29.9375 44.9584 29.4792 44.0626 29.7708 43.2501C33.6875 31.4793 33.6875 18.5209 29.7708 6.72926C29.5 5.91676 29.9375 5.02092 30.75 4.75009C31.5833 4.47926 32.4583 4.91676 32.7292 5.72926C36.875 18.1459 36.875 31.8126 32.7292 44.2084C32.5208 44.8959 31.8958 45.3126 31.25 45.3126Z" fill="#101828"/>
<path d="M25 35.833C19.1875 35.833 13.3958 35.0205 7.8125 33.3747C7.79167 34.208 7.10417 34.8955 6.25 34.8955C5.39583 34.8955 4.6875 34.1872 4.6875 33.333V31.2497C4.6875 30.7497 4.9375 30.2705 5.33333 29.9788C5.75 29.6872 6.27083 29.6038 6.75 29.7705C18.5208 33.6872 31.5 33.6872 43.2708 29.7705C43.75 29.6038 44.2708 29.6872 44.6875 29.9788C45.1042 30.2705 45.3333 30.7497 45.3333 31.2497V33.333C45.3333 34.1872 44.625 34.8955 43.7708 34.8955C42.9167 34.8955 42.2292 34.2288 42.2083 33.3747C36.6042 35.0205 30.8125 35.833 25 35.833Z" fill="#101828"/>
<path d="M43.7501 20.3122C43.5835 20.3122 43.4168 20.2913 43.2501 20.2288C31.4793 16.3122 18.5001 16.3122 6.72929 20.2288C5.89595 20.4997 5.02095 20.0622 4.75012 19.2497C4.50012 18.4163 4.93762 17.5413 5.75012 17.2705C18.1668 13.1247 31.8335 13.1247 44.2293 17.2705C45.0418 17.5413 45.5001 18.4372 45.2085 19.2497C45.021 19.8955 44.396 20.3122 43.7501 20.3122Z" fill="#101828"/>
</svg>
