<svg width="20" height="20" viewBox="0 0 20 20" fill="none" xmlns="http://www.w3.org/2000/svg">
<path d="M15.8083 18.9583H4.1416C1.0166 18.9583 1.0166 17.225 1.0166 15.8333V15C1.0166 14.2 1.67493 13.5416 2.47493 13.5416H17.4749C18.2749 13.5416 18.9333 14.2 18.9333 15V15.8333C18.9333 17.225 18.9333 18.9583 15.8083 18.9583ZM2.47493 14.7916C2.35827 14.7916 2.2666 14.8833 2.2666 15V15.8333C2.2666 17.2 2.2666 17.7083 4.1416 17.7083H15.8083C17.6833 17.7083 17.6833 17.2 17.6833 15.8333V15C17.6833 14.8833 17.5916 14.7916 17.4749 14.7916H2.47493Z" fill="#667085"/>
<path d="M17.2663 14.7916H2.72461C2.38294 14.7916 2.09961 14.5083 2.09961 14.1666V10.8333C2.09961 7.41663 4.52461 4.41663 7.85794 3.70829C8.34961 3.59996 8.86628 3.54163 9.39128 3.54163H10.5996C11.1329 3.54163 11.6496 3.59996 12.1413 3.70829C15.4746 4.42496 17.8913 7.42496 17.8913 10.8333V14.1666C17.8913 14.5083 17.6163 14.7916 17.2663 14.7916ZM3.34961 13.5416H16.6413V10.8333C16.6413 8.00829 14.6413 5.52496 11.8746 4.92496C11.4663 4.83329 11.0413 4.79163 10.5996 4.79163H9.39128C8.95794 4.79163 8.53294 4.83329 8.12461 4.92496C5.35794 5.51663 3.34961 7.99996 3.34961 10.8333V13.5416Z" fill="#667085"/>
<path d="M7.99199 4.94163C7.71699 4.94163 7.46699 4.75829 7.39199 4.48329C7.32533 4.24163 7.29199 3.99996 7.29199 3.74996C7.29199 2.25829 8.50866 1.04163 10.0003 1.04163C11.492 1.04163 12.7087 2.25829 12.7087 3.74996C12.7087 3.99996 12.6753 4.24163 12.6087 4.48329C12.5253 4.79996 12.2087 4.99996 11.8753 4.92496C11.467 4.83329 11.042 4.79163 10.6003 4.79163H9.39199C8.95866 4.79163 8.53366 4.83329 8.12533 4.92496C8.08366 4.93329 8.04199 4.94163 7.99199 4.94163ZM9.39199 3.54163H10.6003C10.8837 3.54163 11.1753 3.55829 11.4503 3.59163C11.3753 2.85829 10.7503 2.29163 10.0003 2.29163C9.25033 2.29163 8.63366 2.85829 8.55033 3.59163C8.83366 3.55829 9.10866 3.54163 9.39199 3.54163Z" fill="#667085"/>
<path d="M12.5 9.79163H7.5C7.15833 9.79163 6.875 9.50829 6.875 9.16663C6.875 8.82496 7.15833 8.54163 7.5 8.54163H12.5C12.8417 8.54163 13.125 8.82496 13.125 9.16663C13.125 9.50829 12.8417 9.79163 12.5 9.79163Z" fill="#667085"/>
</svg>
