<?xml version="1.0" encoding="UTF-8"?>
<!DOCTYPE svg PUBLIC "-//W3C//DTD SVG 1.1//EN" "http://www.w3.org/Graphics/SVG/1.1/DTD/svg11.dtd">
<!-- Creator: CorelDRAW -->
<svg xmlns="http://www.w3.org/2000/svg" xml:space="preserve" width="1.1811in" height="1.1811in" version="1.1" style="shape-rendering:geometricPrecision; text-rendering:geometricPrecision; image-rendering:optimizeQuality; fill-rule:evenodd; clip-rule:evenodd"
viewBox="0 0 1181.1 1181.1"
 xmlns:xlink="http://www.w3.org/1999/xlink"
 xmlns:xodm="http://www.corel.com/coreldraw/odm/2003">
 <defs>
  <style type="text/css">
   <![CDATA[
    .fil1 {fill:#263357;fill-rule:nonzero}
    .fil0 {fill:#273358;fill-rule:nonzero}
   ]]>
  </style>
 </defs>
 <g id="Layer_x0020_1">
  <metadata id="CorelCorpID_0Corel-Layer"/>
  <path class="fil0" d="M597.59 723.63c-96.7,0 -175.3,-78.61 -175.3,-175.31 0,-96.7 78.6,-175.31 175.3,-175.31 96.7,0 175.31,78.61 175.31,175.31 0,96.7 -78.6,175.31 -175.31,175.31zm0 -326.16c-83.17,0 -150.85,67.69 -150.85,150.85 0,83.17 67.68,150.85 150.85,150.85 83.17,0 150.85,-67.68 150.85,-150.85 0,-83.16 -67.68,-150.85 -150.85,-150.85z"/>
  <path class="fil1" d="M548.67 707.31l-16.31 0c-6.69,0 -12.23,-5.55 -12.23,-12.23 0,-6.69 5.22,-12.07 11.91,-12.23 -25.6,-87.41 -25.6,-181.67 0,-269.07 -6.69,-0.16 -11.91,-5.54 -11.91,-12.23 0,-6.69 5.54,-12.23 12.23,-12.23l16.31 0c3.91,0 7.67,1.96 9.95,5.05 2.28,3.26 2.94,7.34 1.63,11.09 -30.66,92.13 -30.66,193.56 0,285.87 1.31,3.75 0.65,7.83 -1.63,11.09 -2.28,2.93 -6.04,4.89 -9.95,4.89z"/>
  <path class="fil1" d="M646.5 707.31c-1.3,0 -2.61,-0.16 -3.91,-0.65 -6.36,-2.12 -9.95,-9.13 -7.67,-15.49 30.66,-92.14 30.66,-193.57 0,-285.87 -2.12,-6.36 1.31,-13.37 7.67,-15.5 6.52,-2.12 13.37,1.31 15.5,7.67 32.45,97.2 32.45,204.17 0,301.2 -1.63,5.38 -6.53,8.65 -11.59,8.65z"/>
  <path class="fil1" d="M597.59 633.11c-45.5,0 -90.83,-6.36 -134.54,-19.24 -0.16,6.52 -5.54,11.91 -12.22,11.91 -6.69,0 -12.23,-5.54 -12.23,-12.23l0 -16.31c0,-3.91 1.96,-7.67 5.06,-9.95 3.26,-2.28 7.33,-2.93 11.09,-1.63 92.13,30.66 193.73,30.66 285.87,0 3.75,-1.3 7.83,-0.65 11.09,1.63 3.26,2.28 5.06,6.04 5.06,9.95l0 16.31c0,6.69 -5.55,12.23 -12.24,12.23 -6.68,0 -12.06,-5.22 -12.23,-11.91 -43.87,12.89 -89.2,19.24 -134.7,19.24z"/>
  <path class="fil1" d="M744.36 511.62c-1.3,0 -2.61,-0.16 -3.91,-0.65 -92.14,-30.66 -193.74,-30.66 -285.87,0 -6.52,2.12 -13.37,-1.31 -15.5,-7.67 -1.95,-6.52 1.47,-13.37 7.83,-15.49 97.19,-32.45 204.17,-32.45 301.2,0 6.36,2.12 9.95,9.13 7.67,15.49 -1.47,5.06 -6.36,8.32 -11.41,8.32z"/>
 </g>
</svg>
