<?xml version="1.0" encoding="UTF-8"?>
<!DOCTYPE svg PUBLIC "-//W3C//DTD SVG 1.1//EN" "http://www.w3.org/Graphics/SVG/1.1/DTD/svg11.dtd">
<!-- Creator: CorelDRAW -->
<svg xmlns="http://www.w3.org/2000/svg" xml:space="preserve" width="1.1811in" height="1.1811in" version="1.1" style="shape-rendering:geometricPrecision; text-rendering:geometricPrecision; image-rendering:optimizeQuality; fill-rule:evenodd; clip-rule:evenodd"
viewBox="0 0 1181.1 1181.1"
 xmlns:xlink="http://www.w3.org/1999/xlink"
 xmlns:xodm="http://www.corel.com/coreldraw/odm/2003">
 <defs>
  <style type="text/css">
   <![CDATA[
    .fil0 {fill:#273358;fill-rule:nonzero}
   ]]>
  </style>
 </defs>
 <g id="Layer_x0020_1">
  <metadata id="CorelCorpID_0Corel-Layer"/>
  <g id="_1775196900128">
   <path class="fil0" d="M631.58 725.78c-24.57,0 -49.31,-9.3 -68.57,-27.73 -48.98,-47.15 -103.1,-122.36 -82.68,-211.84 18.43,-81.19 89.32,-117.55 151.25,-117.55 0,0 0,0 0.17,0 61.92,0 132.81,36.36 151.24,117.71 20.26,89.49 -33.87,164.53 -82.84,211.68 -19.26,18.43 -44,27.73 -68.57,27.73zm0 -332.21c-48.31,0 -110.41,25.73 -126.84,98.12 -17.93,78.2 31.21,145.6 75.71,188.27 28.72,27.72 73.71,27.72 102.44,0 44.33,-42.67 93.47,-110.07 75.87,-188.27 -16.6,-72.39 -78.86,-98.12 -127.17,-98.12z"/>
   <path class="fil0" d="M614.28 585.72c-3.37,0 -6.74,-1.24 -9.4,-3.9l-26.59 -26.59c-5.14,-5.14 -5.14,-13.66 0,-18.8 5.14,-5.15 13.65,-5.15 18.79,0l17.2 17.2 61.52 -61.52c5.14,-5.14 13.65,-5.14 18.79,0 5.14,5.14 5.14,13.65 0,18.79l-70.91 70.92c-2.66,2.66 -6.03,3.9 -9.4,3.9z"/>
  </g>
 </g>
</svg>
