<?xml version="1.0" encoding="UTF-8"?>
<!DOCTYPE svg PUBLIC "-//W3C//DTD SVG 1.1//EN" "http://www.w3.org/Graphics/SVG/1.1/DTD/svg11.dtd">
<!-- Creator: CorelDRAW -->
<svg xmlns="http://www.w3.org/2000/svg" xml:space="preserve" width="1.1811in" height="1.1811in" version="1.1" style="shape-rendering:geometricPrecision; text-rendering:geometricPrecision; image-rendering:optimizeQuality; fill-rule:evenodd; clip-rule:evenodd"
viewBox="0 0 1181.1 1181.1"
 xmlns:xlink="http://www.w3.org/1999/xlink"
 xmlns:xodm="http://www.corel.com/coreldraw/odm/2003">
 <defs>
  <style type="text/css">
   <![CDATA[
    .str0 {stroke:#263357;stroke-width:31.25;stroke-linecap:round;stroke-linejoin:round;stroke-miterlimit:22.9256}
    .str1 {stroke:#273358;stroke-width:31.25;stroke-linecap:round;stroke-linejoin:round;stroke-miterlimit:22.9256}
    .fil0 {fill:none;fill-rule:nonzero}
   ]]>
  </style>
 </defs>
 <g id="Layer_x0020_1">
  <metadata id="CorelCorpID_0Corel-Layer"/>
  <g id="_1775055529184">
   <path class="fil0 str0" d="M707.91 504.11c0,26.5 -7.85,50.8 -21.37,71.07 -19.73,29.23 -50.97,49.88 -87.33,55.17 -6.21,1.1 -12.61,1.65 -19.18,1.65 -6.58,0 -12.98,-0.55 -19.19,-1.65 -36.36,-5.3 -67.6,-25.94 -87.33,-55.17 -13.52,-20.28 -21.38,-44.58 -21.38,-71.07 0,-70.71 57.19,-127.89 127.9,-127.89 70.71,0 127.89,57.19 127.89,127.89z"/>
   <path class="fil0 str0" d="M749.02 677.13l-30.15 7.12c-6.76,1.65 -12.06,6.76 -13.52,13.52l-6.39 26.86c-3.47,14.61 -22.11,19 -31.79,7.49l-87.15 -100.12 -87.15 100.3c-9.68,11.51 -28.32,7.13 -31.79,-7.49l-6.39 -26.86c-1.65,-6.76 -6.94,-12.06 -13.52,-13.52l-30.15 -7.13c-13.89,-3.29 -18.82,-20.65 -8.77,-30.69l71.26 -71.26c19.73,29.23 50.97,49.88 87.33,55.18 6.21,1.09 12.61,1.65 19.19,1.65 6.57,0 12.97,-0.55 19.18,-1.65 36.36,-5.3 67.6,-25.94 87.33,-55.18l71.26 71.26c10.05,9.87 5.12,27.22 -8.77,30.51z"/>
   <path class="fil0 str1" d="M590.61 448.93l10.78 21.56c1.46,2.92 5.3,5.85 8.78,6.4l19.55 3.29c12.43,2 15.35,11.14 6.4,20.09l-15.17 15.17c-2.56,2.56 -4.02,7.49 -3.11,11.15l4.39 18.81c3.47,14.8 -4.39,20.65 -17.54,12.8l-18.27 -10.78c-3.29,-2.01 -8.77,-2.01 -12.06,0l-18.27 10.78c-13.15,7.67 -21.01,2.01 -17.54,-12.8l4.39 -18.81c0.73,-3.47 -0.55,-8.59 -3.11,-11.15l-15.17 -15.17c-8.95,-8.95 -6.03,-17.91 6.4,-20.09l19.55 -3.29c3.29,-0.55 7.13,-3.48 8.58,-6.4l10.78 -21.56c5.3,-11.7 14.8,-11.7 20.65,0z"/>
  </g>
 </g>
</svg>
