<?xml version="1.0" encoding="UTF-8"?>
<!DOCTYPE svg PUBLIC "-//W3C//DTD SVG 1.1//EN" "http://www.w3.org/Graphics/SVG/1.1/DTD/svg11.dtd">
<!-- Creator: CorelDRAW -->
<svg xmlns="http://www.w3.org/2000/svg" xml:space="preserve" width="1.1811in" height="1.1811in" version="1.1" style="shape-rendering:geometricPrecision; text-rendering:geometricPrecision; image-rendering:optimizeQuality; fill-rule:evenodd; clip-rule:evenodd"
viewBox="0 0 1181.1 1181.1"
 xmlns:xlink="http://www.w3.org/1999/xlink"
 xmlns:xodm="http://www.corel.com/coreldraw/odm/2003">
 <defs>
  <style type="text/css">
   <![CDATA[
    .str0 {stroke:#263357;stroke-width:10.42;stroke-miterlimit:22.9256}
    .str1 {stroke:#101828;stroke-width:10.42;stroke-miterlimit:22.9256}
    .fil0 {fill:#263357;fill-rule:nonzero}
    .fil1 {fill:#101828;fill-rule:nonzero}
   ]]>
  </style>
 </defs>
 <g id="Layer_x0020_1">
  <metadata id="CorelCorpID_0Corel-Layer"/>
  <g id="_1775102157680">
   <path class="fil0" d="M505.76 522.39c-12.28,0 -24.72,-4.49 -34.24,-13.66 -31.82,-30.26 -44.61,-63.29 -37.18,-95.63 8.82,-38.05 42.2,-54.99 71.42,-54.99 29.23,0 62.77,17.12 71.42,54.99 7.44,32.33 -5.54,65.36 -37.18,95.63 -9.51,9.17 -21.79,13.66 -34.24,13.66zm-46.17 -103.41c-6.57,28.88 12.62,54.47 29.91,70.91 9.17,8.82 23.52,8.64 32.69,0 17.29,-16.43 36.48,-42.02 29.74,-71.07 -5.89,-25.59 -28.54,-34.76 -46,-34.76 -17.64,0 -40.3,9.17 -46.34,34.93z"/>
   <path class="fil0" d="M506.45 443.71c-9.51,0 -17.29,-7.78 -17.29,-17.29 0,-9.51 7.61,-17.3 17.29,-17.3l0.17 0c9.51,0 17.29,7.79 17.29,17.3 0,9.51 -7.78,17.29 -17.46,17.29z"/>
   <path class="fil0 str0" d="M699.35 713.22l0 0c-31.31,-29.62 -43.33,-61.23 -36.16,-91.84l0 -0c8.27,-35.53 39.73,-51.78 67.72,-51.78 27.98,0 59.44,16.25 67.72,51.78 7,30.44 -5.02,62.23 -36.32,91.67l-0 0 -0.06 0.06c-8.68,8.52 -19.89,12.65 -31.33,12.65 -11.28,0 -22.69,-4.13 -31.56,-12.53zm-19 -87.69l0 0.01c-7.3,31.25 13.69,58.48 31.09,75.02 10.79,10.37 27.83,10.33 38.75,0.02l0.01 -0.01c17.39,-16.52 38.39,-43.58 31.11,-74.82 -6.3,-28.52 -31.46,-38.33 -50.39,-38.33 -18.79,0 -43.91,9.82 -50.56,38.13z"/>
   <path class="fil0 str0" d="M731.59 647.07c-7.21,0 -13.14,-5.93 -13.14,-13.15 0,-7.24 5.78,-13.14 13.14,-13.14l0.18 0c7.22,0 13.14,5.92 13.14,13.14 0,7.17 -6.05,13.15 -13.32,13.15z"/>
   <path class="fil1 str1" d="M531.78 645.8l0 0 -0.01 -0.03c-6.46,-17.04 -1.76,-35.79 12.01,-47.98 0,-0 0,-0 0.01,-0.01l138.15 -120.86 0 0c9.93,-8.68 10.06,-20.51 7.23,-28.39l0 0 -0.03 -0.09c-3.04,-7.89 -10.89,-16.67 -24.11,-16.67l-46.35 0c-4.8,0 -8.81,-4.02 -8.81,-8.82 0,-4.8 4.02,-8.82 8.81,-8.82l46.35 0c18.33,0 34.24,11.04 40.55,28.07l0 0 0.01 0.03c6.46,17.04 1.76,35.79 -12.01,47.98 0,0 -0,0.01 -0.01,0.01l-138.15 120.86 0 0c-9.93,8.68 -10.06,20.51 -7.23,28.39l0 0 0.04 0.09c3.03,7.89 10.88,16.67 24.11,16.67l46.34 0c4.8,0 8.82,4.02 8.82,8.82 0,4.79 -4.02,8.82 -8.82,8.82l-46.34 0c-18.34,0 -34.24,-11.04 -40.56,-28.07z"/>
   <path class="fil0 str0" d="M531.78 645.8l0 0 -0.01 -0.03c-6.46,-17.04 -1.76,-35.79 12.01,-47.98 0,-0 0,-0 0.01,-0.01l138.15 -120.86 0 0c9.93,-8.68 10.06,-20.51 7.23,-28.39l0 0 -0.03 -0.09c-3.04,-7.89 -10.89,-16.67 -24.11,-16.67l-46.35 0c-4.8,0 -8.81,-4.02 -8.81,-8.82 0,-4.8 4.02,-8.82 8.81,-8.82l46.35 0c18.33,0 34.24,11.04 40.55,28.07l0 0 0.01 0.03c6.46,17.04 1.76,35.79 -12.01,47.98 0,0 -0,0.01 -0.01,0.01l-138.15 120.86 0 0c-9.93,8.68 -10.06,20.51 -7.23,28.39l0 0 0.04 0.09c3.03,7.89 10.88,16.67 24.11,16.67l46.34 0c4.8,0 8.82,4.02 8.82,8.82 0,4.79 -4.02,8.82 -8.82,8.82l-46.34 0c-18.34,0 -34.24,-11.04 -40.56,-28.07z"/>
  </g>
 </g>
</svg>
