<?xml version="1.0" encoding="UTF-8"?>
<!DOCTYPE svg PUBLIC "-//W3C//DTD SVG 1.1//EN" "http://www.w3.org/Graphics/SVG/1.1/DTD/svg11.dtd">
<!-- Creator: CorelDRAW -->
<svg xmlns="http://www.w3.org/2000/svg" xml:space="preserve" width="1.1811in" height="1.1811in" version="1.1" style="shape-rendering:geometricPrecision; text-rendering:geometricPrecision; image-rendering:optimizeQuality; fill-rule:evenodd; clip-rule:evenodd"
viewBox="0 0 1181.1 1181.1"
 xmlns:xlink="http://www.w3.org/1999/xlink"
 xmlns:xodm="http://www.corel.com/coreldraw/odm/2003">
 <defs>
  <style type="text/css">
   <![CDATA[
    .fil0 {fill:#263357;fill-rule:nonzero}
   ]]>
  </style>
 </defs>
 <g id="Layer_x0020_1">
  <metadata id="CorelCorpID_0Corel-Layer"/>
  <path class="fil0" d="M579.23 675.11l0 46.22 -44.36 0 0 44.36 133.07 0 0 -44.36 -44.35 0 0 -46.22c70.13,-8.92 129.73,-59 148.89,-128.49 5.86,-21.11 6.92,-45.03 3.18,-71.11l-19.21 -134.39c-1.56,-10.92 -10.92,-19.03 -21.96,-19.03l-266.16 0c-11.05,0 -20.41,8.11 -21.95,19.03l-19.19 134.37c-3.75,26.1 -2.69,50.02 3.17,71.11 19.15,69.52 78.74,119.59 148.88,128.51zm136.03 -308.65l12.64 88.72 -253 0 12.66 -88.72 227.7 0z"/>
 </g>
</svg>
