<?xml version="1.0" encoding="UTF-8"?>
<!DOCTYPE svg PUBLIC "-//W3C//DTD SVG 1.1//EN" "http://www.w3.org/Graphics/SVG/1.1/DTD/svg11.dtd">
<!-- Creator: CorelDRAW -->
<svg xmlns="http://www.w3.org/2000/svg" xml:space="preserve" width="1.1811in" height="1.1811in" version="1.1" style="shape-rendering:geometricPrecision; text-rendering:geometricPrecision; image-rendering:optimizeQuality; fill-rule:evenodd; clip-rule:evenodd"
viewBox="0 0 1181.1 1181.1"
 xmlns:xlink="http://www.w3.org/1999/xlink"
 xmlns:xodm="http://www.corel.com/coreldraw/odm/2003">
 <defs>
  <style type="text/css">
   <![CDATA[
    .str0 {stroke:#263357;stroke-width:29.53;stroke-miterlimit:22.9256}
    .str1 {stroke:#263357;stroke-width:3;stroke-miterlimit:22.9256}
    .fil1 {fill:none;fill-rule:nonzero}
    .fil2 {fill:#263357}
    .fil0 {fill:#263357;fill-rule:nonzero}
   ]]>
  </style>
 </defs>
 <g id="Layer_x0020_1">
  <metadata id="CorelCorpID_0Corel-Layer"/>
  <path class="fil0" d="M768.75 426.71c-0.61,0.65 -10.16,11.99 -27.6,11.99 -17.35,0 -26.95,-11.34 -27.56,-11.99 -5.96,-7.61 -16.78,-8.83 -23.96,-2.55 -7.22,6.34 -8.39,17.68 -2.43,25.3 7.19,9.43 26.39,25.24 53.94,25.24 26.99,0 46.81,-15.81 53.99,-25.24 5.98,-7.62 4.81,-18.32 -2.42,-24.66 -7.18,-6.29 -17.95,-5.7 -23.97,1.91z"/>
  <path class="fil0" d="M699.85 341.47c11.89,0 21.54,10.17 21.54,22.75 0,12.56 -9.65,22.73 -21.54,22.73 -11.98,0 -21.63,-10.17 -21.63,-22.73 0,-12.58 9.65,-22.75 21.63,-22.75z"/>
  <path class="fil0" d="M782.51 341.47c11.98,0 21.64,10.17 21.64,22.75 0,12.56 -9.65,22.73 -21.64,22.73 -11.88,0 -21.54,-10.17 -21.54,-22.73 0,-12.58 9.65,-22.75 21.54,-22.75z"/>
  <path class="fil1 str0" d="M742.57 247.93c80.14,0 145.11,64.47 145.11,143.99 0,79.52 -64.97,143.99 -145.11,143.99 -80.14,0 -145.11,-64.47 -145.11,-143.99 0,-79.52 64.97,-143.99 145.11,-143.99z"/>
  <path class="fil0 str1" d="M398.05 710.18c11.91,0 21.59,11.28 21.59,25.13 0,13.93 -9.69,25.14 -21.59,25.14 -11.91,0 -21.59,-11.21 -21.59,-25.14 0,-13.85 9.69,-25.13 21.59,-25.13z"/>
  <path class="fil2 str1" d="M355.42 613.28l86.61 0 0 154.69 -86.61 0 0 -154.69zm180.19 -148.7c0,-7.91 3.78,-9.4 13.15,-9.4 2.81,0 6.11,0.78 7.88,1.55 4.04,1.76 8.52,16.39 10.25,21.16 9.49,26.08 9.01,31.35 6.06,53.6l-8.73 55.3 102.09 0c14.59,0 17.37,19.74 7.17,31 -3.4,3.75 -6,6.6 -12.59,6.6 -0.61,2.92 -1.47,5.11 -1.55,8.55 5.43,0.5 13.15,5.86 13.15,11.97 0,6.94 -0.24,11.67 -5.67,17.66 -1,1.11 -4.05,3.54 -5.38,4.31 -2.42,1.39 -4.07,1.95 -7.5,1.95 -0.62,2.92 -1.48,5.1 -1.55,8.55 21.06,0.52 15.05,35.4 -5.42,35.9 -0.25,3.38 -1.28,5.16 -1.54,8.54 19.05,0 13.87,34.19 -9.28,34.19l-146.17 0c-9.82,0 -21.38,-16.63 -30.17,-11.97l0 -119.65 16.25 -11.96c11.58,-8.99 17.11,-19.41 25.51,-33.34 9.19,-15.23 24.53,-42.5 30.96,-58.09 7.02,-16.95 2.99,-23.43 3.06,-41.04 0.03,-5.12 0,-10.26 0,-15.39zm-19.33 -6.83c0,12.36 -0.15,24.05 0.74,35.94 1.17,15.66 -1.63,18.24 -9.49,33.87 -1.41,2.81 -2.23,4.7 -3.57,7.15 -1.37,2.52 -2.27,4.27 -3.67,7.06 -4.6,9.15 -20.99,37.48 -27.9,46.09 -1.83,2.29 -3.31,3.28 -4.83,5.78 -2.76,-0.7 -3.63,-1.7 -6.96,-1.7l-109.05 0c-6.53,0 -15.46,9.05 -15.46,18.8l0 160.67c0,8.94 8.15,17.94 16.24,17.94l95.91 0c8.09,0 16.24,-8.02 16.24,-17.08l0 -4.28c3.9,0.09 6.57,3.56 13.14,6.83 3.9,1.95 10.51,3.42 16.24,3.42l133.02 0c28.06,0 51.82,-12.06 51.82,-45.3 0,-4.11 -0.74,-8.21 -1.43,-11.31 -1.23,-5.58 -0.4,-5.3 2.06,-9.36 11.56,-19.17 4.02,-35.55 4.02,-40 0,-0.15 2.76,-4.05 3.26,-4.94 1.09,-1.91 1.77,-3.43 2.68,-5.59 3.38,-8.01 3.34,-11.76 3.34,-20.24 0,-5.56 -1.36,-7.19 -2.36,-11.08 -1.36,-5.27 9.32,-9.07 9.32,-30.79 0,-19.28 -12.71,-34.19 -30.16,-34.19l-81.21 0c0,-15.66 8.73,-40.72 5.65,-61.79 -2.13,-14.59 -14.4,-54.06 -20.54,-60.19 -1.59,-1.58 -4.39,-3.7 -6.48,-4.81 -23.58,-12.63 -50.56,1.49 -50.56,19.11z"/>
 </g>
</svg>
