<svg width="132" height="107" viewBox="0 0 132 107" fill="none" xmlns="http://www.w3.org/2000/svg">
<path fill-rule="evenodd" clip-rule="evenodd" d="M3.56528 15.464V15.5565C8.6706 15.6962 13.6464 16.6523 18.3234 18.3525C19.0159 17.6811 19.6556 16.9676 20.2469 16.2039C16.8098 14.8739 13.208 13.9276 9.50501 13.3877C7.75623 14.5078 5.74035 15.2508 3.56528 15.464ZM2.22215 64.1044H28.1421C35.1711 64.1044 41.3547 60.3915 44.6807 54.1769C47.9759 48.0437 47.6397 40.9235 43.8046 35.1563C43.174 34.2132 42.5253 33.2966 41.8473 32.4174C41.8473 32.4151 41.8473 32.4151 41.8439 32.4108C41.2769 33.1374 40.6964 33.8506 40.0985 34.5498C40.0951 34.5519 40.0951 34.5519 40.092 34.5562C40.6008 35.2377 41.0999 35.9303 41.5679 36.6403C44.8534 41.5753 45.1282 47.6571 42.3088 52.9185C41.547 54.3495 40.592 55.6236 39.4906 56.7302C38.5784 50.9631 36.3999 45.6752 33.2562 41.1478C32.5539 41.6961 31.8407 42.2371 31.1108 42.7558C34.285 47.3723 36.389 52.8163 37.0617 58.7451C34.4885 60.4632 31.4263 61.4194 28.1421 61.4194H27.8046C27.5408 56.2337 25.7185 51.451 22.7991 47.525C22.5925 47.6163 22.3825 47.7085 22.1759 47.7989C21.7472 47.9867 21.3163 48.1658 20.8854 48.3429C20.671 48.4276 20.4579 48.5098 20.2448 48.5902C20.2401 48.5902 20.2401 48.5933 20.2358 48.5933C23.0639 52.1645 24.8457 56.5863 25.1171 61.4194H15.6382C15.2204 57.2281 12.8727 53.5855 9.50501 51.4105C7.11218 51.7667 4.67851 51.9502 2.21742 51.9502C1.4747 51.9467 0.879883 51.3501 0.879883 50.607V51.9402C1.77695 51.9502 3.05312 51.9776 3.56528 52.0424C3.5784 52.0424 3.5927 52.0445 3.60237 52.0493C8.45628 52.6845 12.322 56.5489 12.9341 61.4194H0.879883V62.7646C0.879883 63.4934 1.479 64.1044 2.22215 64.1044V64.1044ZM21.0249 19.4256L21.0218 19.4287C24.0017 20.7127 26.8385 22.3107 29.4928 24.19C29.9741 23.6034 30.4293 23.003 30.8633 22.3886C30.9042 22.3303 30.9416 22.2767 30.982 22.2216C31.0228 22.1677 31.0634 22.1141 31.1008 22.0558C31.1008 22.0558 31.0977 22.0558 31.0977 22.0524C28.4948 20.1914 25.7119 18.6011 22.8068 17.2876C22.8034 17.2876 22.8034 17.2833 22.7991 17.2833C22.2395 18.0372 21.6527 18.746 21.0249 19.4256V19.4256ZM32.6705 24.4905C32.4726 24.7606 32.2691 25.0288 32.066 25.2937C31.9286 25.4706 31.7911 25.6432 31.6516 25.817C34.0919 27.7612 36.359 29.9575 38.3949 32.4008C38.9829 31.7085 39.5424 30.996 40.092 30.252C38.0123 27.8252 35.7107 25.6201 33.253 23.6682L33.2453 23.6604C33.0596 23.9386 32.8661 24.2143 32.6705 24.4905V24.4905ZM11.1648 26.051C10.9405 26.1345 10.7195 26.2171 10.4952 26.295C10.2733 26.3764 10.0413 26.4511 9.81382 26.5225C7.82105 27.1468 5.73164 27.5303 3.56528 27.6382V27.6999C9.50501 27.924 15.0786 29.6014 19.9117 32.4008C20.3448 32.1525 20.771 31.8921 21.191 31.6238C21.6042 31.3524 22.0154 31.0776 22.4233 30.7928C19.0091 28.6274 15.2127 27.0107 11.1713 26.051H11.1648V26.051ZM23.4848 33.3309C23.2474 33.4901 23.0055 33.6461 22.766 33.8023C22.6573 33.8736 22.5441 33.9453 22.432 34.0166C25.0875 35.8795 27.4595 38.0954 29.4818 40.6069C30.2162 40.0881 30.9393 39.5486 31.6516 38.9824C29.6445 36.5082 27.3486 34.2915 24.7961 32.4108C24.3631 32.7229 23.9291 33.0317 23.4848 33.3309V33.3309ZM3.56528 39.7837V39.8651C9.30154 40.2015 14.4698 42.6436 18.3124 46.4456C18.5399 46.3631 18.7707 46.283 18.9982 46.1974C19.2786 46.093 19.5587 45.984 19.837 45.8718C20.0139 45.8004 20.1897 45.729 20.3623 45.6543C20.4414 45.6235 20.5196 45.5904 20.5932 45.5564C20.7358 45.4948 20.8789 45.4343 21.0218 45.3695C18.3234 42.4501 14.9556 40.1598 11.1648 38.7471C8.71145 39.3485 6.16911 39.6915 3.56528 39.7837V39.7837Z" fill="url(#paint0_linear_6668_66457)"/>
<path fill-rule="evenodd" clip-rule="evenodd" d="M2.22215 0.704102C1.479 0.704102 0.879883 1.30548 0.879883 2.04508V3.38918H12.9341C12.322 8.26276 8.43543 12.1496 3.56528 12.7575C3.12664 12.8144 2.88706 12.8354 1.96161 12.8484L1.93829 12.8784C2.02739 12.8597 2.11994 12.8484 2.21431 12.8484C4.67851 12.8484 7.11218 13.031 9.50501 13.3881C12.8727 11.2117 15.2204 7.58045 15.6382 3.38918H25.1171C24.8457 8.21139 23.0639 12.6341 20.2469 16.2043C20.2501 16.2043 20.2501 16.2087 20.2545 16.2087C20.4678 16.2901 20.681 16.3744 20.891 16.4592C21.1536 16.5648 21.4076 16.6692 21.6614 16.7823C21.9033 16.8844 22.1407 16.9845 22.378 17.0935C22.5177 17.1549 22.6573 17.2197 22.7991 17.2836C22.7991 17.2836 22.7991 17.2814 22.8034 17.2814C25.7185 13.3641 27.5408 8.57845 27.8046 3.38918H28.1421C31.4263 3.38918 34.4885 4.3358 37.0617 6.06341C36.389 12.0031 34.2885 17.4397 31.1054 22.0493C31.1054 22.0528 31.1008 22.0528 31.1008 22.0562C31.8308 22.5628 32.544 23.1012 33.2453 23.6607C33.2453 23.6586 33.2496 23.6586 33.2496 23.6543C36.412 19.1169 38.5884 13.842 39.5016 8.07928C40.592 9.17627 41.547 10.459 42.3175 11.8945C45.1282 17.1419 44.8534 23.2246 41.5679 28.1585C41.09 28.8717 40.6008 29.5709 40.092 30.2524C40.0951 30.2566 40.0951 30.2566 40.0985 30.2601C40.6964 30.9593 41.2769 31.6715 41.8439 32.4112C41.8473 32.4077 41.8473 32.4077 41.8473 32.4046C42.5253 31.512 43.174 30.5963 43.8046 29.6523C47.6507 23.8752 47.9759 16.7648 44.6807 10.6216C41.3547 4.41706 35.1711 0.704102 28.1421 0.704102H2.22215V0.704102ZM0.879883 14.1928L1.93829 12.8784C1.33164 13.0089 0.879883 13.5476 0.879883 14.1928ZM3.56528 24.9447V25.0161C5.52044 25.0844 7.43743 25.2941 9.3081 25.6502C9.62034 25.7084 9.93248 25.7688 10.2413 25.8371C10.5513 25.9053 10.8591 25.9767 11.1648 26.0514H11.1713C14.9621 24.65 18.3234 22.3519 21.0218 19.429C20.581 19.2356 20.138 19.0521 19.693 18.8729C19.6731 18.8651 19.6556 18.8586 19.637 18.8521C19.2061 18.6794 18.7729 18.5124 18.3364 18.3598C18.3321 18.3564 18.3267 18.3529 18.3234 18.3529C14.4795 22.1584 9.30154 24.6082 3.56528 24.9447V24.9447ZM22.4233 30.7932C22.4264 30.7932 22.4264 30.7954 22.4299 30.7954C22.633 30.9219 22.833 31.0471 23.0342 31.1758C23.4312 31.4373 23.8247 31.7054 24.2148 31.9834C24.4082 32.122 24.6018 32.266 24.7961 32.4112C27.3486 30.5062 29.6554 28.3013 31.6516 25.8174C31.4746 25.6745 31.2977 25.5348 31.1216 25.3953C30.5885 24.9818 30.0458 24.5852 29.4984 24.1951C29.495 24.1951 29.495 24.1904 29.4928 24.1904C27.4595 26.7132 25.0766 28.9334 22.4233 30.7932V30.7932ZM31.6516 38.9828C32.2078 39.6819 32.7474 40.4042 33.2562 41.1482C35.7173 39.1862 38.0188 36.9769 40.092 34.5566C39.5523 33.8126 38.9829 33.0904 38.3949 32.4012C36.359 34.8414 34.0919 37.0373 31.6516 38.9828V38.9828ZM3.56528 37.0977V37.1694C6.22951 37.3022 8.78153 37.8517 11.1648 38.7475C15.2105 37.7913 19.0047 36.1724 22.432 34.017C21.9747 33.6918 21.5098 33.3783 21.0371 33.0773C20.8789 32.9752 20.7197 32.8804 20.5601 32.7816C20.3448 32.6529 20.1283 32.5264 19.9117 32.4012C15.0786 35.2085 9.50501 36.8847 3.56528 37.0977V37.0977ZM21.0218 45.3699L21.0249 45.3733C21.6493 46.0513 22.2494 46.7714 22.796 47.5223C22.7991 47.5223 22.7991 47.5254 22.7991 47.5254C25.7185 46.2053 28.5057 44.606 31.1108 42.7562C30.8568 42.3901 30.5954 42.0265 30.3249 41.6669C30.0524 41.3077 29.7731 40.9538 29.4818 40.6072C26.8286 42.4913 23.9904 44.0872 21.0218 45.3699V45.3699ZM3.56528 49.2555V49.338C5.74035 49.5612 7.75623 50.2909 9.50501 51.4109C13.208 50.8713 16.7988 49.9248 20.2358 48.5937C19.6465 47.8298 19.0047 47.1175 18.3124 46.446C13.6355 48.1454 8.66071 49.1037 3.56528 49.2555V49.2555Z" fill="url(#paint1_linear_6668_66457)"/>
<path d="M40.1027 34.5556C40.0963 34.5556 40.0963 34.5556 40.0963 34.5612C39.5576 33.8172 38.9883 33.0962 38.4014 32.4058C38.9883 31.7166 39.5454 31.0021 40.0963 30.2568C40.0963 30.2624 40.0963 30.2624 40.1027 30.2624C40.7028 30.9647 41.2834 31.6792 41.8472 32.4188C41.2834 33.1445 40.7028 33.8533 40.1027 34.5556Z" fill="#234277"/>
<path d="M21.0246 45.375H21.0303C21.6534 46.0598 22.2535 46.7742 22.7988 47.5248C22.804 47.5248 22.804 47.5304 22.804 47.5304C22.5987 47.6217 22.3865 47.7117 22.1809 47.803C21.7512 47.9909 21.3213 48.1722 20.8916 48.3479C20.6741 48.4327 20.4607 48.5118 20.2497 48.5965H20.2432C19.6497 47.8335 19.0075 47.1248 18.3174 46.4533C18.5418 46.3686 18.778 46.2894 19.0023 46.2047C19.2867 46.0959 19.565 45.9871 19.8441 45.8785C20.0189 45.8046 20.1946 45.732 20.3641 45.6597C20.4432 45.6289 20.5224 45.5936 20.6003 45.5628C20.7399 45.5024 20.8851 45.442 21.0246 45.375V45.375Z" fill="#234277"/>
<path d="M30.3311 41.6702C30.0585 41.3129 29.7794 40.9612 29.4893 40.6105C30.2211 40.0962 30.9433 39.5575 31.6565 38.9883C32.2139 39.684 32.7526 40.4106 33.2614 41.1558C32.5591 41.6998 31.8447 42.2451 31.1181 42.7605C30.8629 42.3968 30.5972 42.0339 30.3311 41.6702Z" fill="#234277"/>
<path d="M22.4354 30.8012C22.6354 30.929 22.8341 31.0498 23.041 31.1825C23.4342 31.4433 23.8277 31.7104 24.2212 31.9882C24.416 32.1278 24.6095 32.2731 24.796 32.4183C24.3677 32.727 23.9368 33.0358 23.4894 33.338C23.2529 33.4962 23.0102 33.6536 22.7685 33.8106C22.6594 33.8766 22.5497 33.9503 22.4354 34.0228C21.9813 33.6953 21.5153 33.381 21.0427 33.0844C20.8856 32.981 20.7217 32.884 20.5644 32.7875C20.3525 32.66 20.1347 32.5335 19.916 32.4061C20.3525 32.1577 20.7756 31.8973 21.1943 31.6312C21.6119 31.3586 22.0176 31.0794 22.4288 30.7959C22.4288 30.7959 22.4288 30.8012 22.4354 30.8012V30.8012Z" fill="#234277"/>
<path d="M31.1239 25.4011C30.5909 24.9888 30.0512 24.5901 29.5004 24.2018C29.5004 24.2018 29.5004 24.1965 29.4951 24.1965C29.9796 23.6095 30.4336 23.0094 30.8701 22.3916C30.9062 22.3368 30.9479 22.2829 30.9844 22.228C31.0261 22.1741 31.0688 22.119 31.1052 22.0586H31.1109C31.844 22.5676 32.5463 23.106 33.2498 23.6687C33.0616 23.9482 32.8672 24.2205 32.6737 24.4931C32.4749 24.7648 32.2737 25.0318 32.068 25.2979C31.935 25.4736 31.7954 25.6497 31.6558 25.8254C31.481 25.6792 31.3053 25.5407 31.1239 25.4011V25.4011Z" fill="#234277"/>
<path d="M21.03 19.4306L21.0247 19.4372C20.5826 19.2436 20.1399 19.0557 19.6981 18.8798C19.6794 18.8732 19.6628 18.8611 19.6373 18.8558C19.2076 18.6863 18.778 18.5161 18.3427 18.3653C18.3362 18.3588 18.3306 18.3588 18.3306 18.3588C19.0207 17.6873 19.6628 16.973 20.2495 16.209C20.2552 16.209 20.2552 16.2155 20.2552 16.2155C20.473 16.2934 20.6861 16.3795 20.897 16.4638C21.1574 16.5672 21.4126 16.676 21.6666 16.7848C21.9083 16.8882 22.1445 16.9904 22.381 17.0992C22.5194 17.1609 22.6589 17.2269 22.8041 17.2873C22.2424 18.0444 21.6531 18.7523 21.03 19.4306Z" fill="#234277"/>
<path d="M3.56498 49.2557H0.880859V51.9398C1.3295 51.9539 1.77008 51.9508 2.21744 51.9508C4.67948 51.9508 7.11316 51.7672 9.5047 51.4111C7.75624 50.291 5.74036 49.4797 3.56498 49.2557ZM3.56498 37.098H0.880859V39.8644H3.56498C6.16912 39.7734 8.71114 39.3478 11.1645 38.7478C8.78154 37.852 6.23049 37.231 3.56498 37.098ZM10.2413 25.836C9.93249 25.7725 9.62035 25.7077 9.30908 25.6494C7.43744 25.2933 5.52045 25.0119 3.56498 24.9437H0.880859V27.7001H3.56498C5.73133 27.5915 7.82191 27.1462 9.81479 26.5221C10.0422 26.4504 10.2731 26.3769 10.4961 26.2943C10.7205 26.2174 10.9405 26.1352 11.1645 26.0505C10.8601 25.9756 10.5501 25.9043 10.2413 25.836V25.836ZM2.21432 12.8477C1.77008 12.8477 1.32509 12.8542 0.880859 12.8686V15.5558H3.56498C5.74036 15.3427 7.75624 14.5074 9.5047 13.3873C7.11316 13.0312 4.67948 12.8477 2.21432 12.8477V12.8477Z" fill="#234277"/>
<path d="M5.39738 85.1482H8.00109C9.16515 85.1482 9.99515 84.9856 10.4917 84.66C10.9866 84.3347 11.2362 83.7972 11.2362 83.0432C11.2362 82.274 10.9722 81.7045 10.4469 81.3374C9.92034 80.9692 9.09594 80.7856 7.97583 80.7856H5.39738V85.1482V85.1482ZM7.7198 77.5784C8.53325 77.5784 9.13678 77.4235 9.53555 77.1156C9.93249 76.8078 10.1325 76.3417 10.1325 75.7174C10.1325 75.025 9.93034 74.5094 9.52899 74.1711C9.12678 73.8336 8.52325 73.6644 7.7198 73.6644H5.39738V77.5784H7.7198V77.5784ZM0.880859 88.4325V70.4824H7.50107C9.86208 70.4824 11.6436 70.869 12.845 71.6429C14.0465 72.4179 14.6477 73.5666 14.6477 75.0889C14.6477 75.8834 14.4444 76.5813 14.0386 77.1793C13.6321 77.7784 13.0398 78.2544 12.2615 78.6038C13.5189 78.9973 14.4552 79.5821 15.0721 80.356C15.6874 81.1297 15.9963 82.1067 15.9963 83.2885C15.9963 85.0074 15.4049 86.2945 14.2247 87.1498C13.0442 88.0049 11.2688 88.4325 8.90031 88.4325H0.880859Z" fill="#234277"/>
<path d="M33.6643 78.925H31.9189V78.1027L36.885 72.7148H37.462V76.2683H41.6199V78.925H37.462V83.4151C37.462 84.3481 37.5951 84.9704 37.8598 85.2825C38.126 85.5948 38.6096 85.7505 39.3109 85.7505C39.6514 85.7505 40.0131 85.7022 40.3946 85.6035C40.7759 85.5044 41.1837 85.3527 41.6199 85.1483L41.6455 88.0094C41.0285 88.2403 40.4141 88.4106 39.7976 88.5229C39.1822 88.6338 38.5709 88.6886 37.963 88.6886C36.4145 88.6886 35.311 88.2907 34.6526 87.4963C33.9943 86.7002 33.6643 85.3317 33.6643 83.3898V78.925V78.925Z" fill="#234277"/>
<path d="M51.7954 86.9049C51.1879 87.5206 50.5591 87.9676 49.9096 88.2459C49.2587 88.5241 48.5112 88.6637 47.6638 88.6637C46.3284 88.6637 45.303 88.2581 44.5843 87.4502C43.8652 86.6422 43.5068 85.4816 43.5068 83.9668V76.2686H47.3429V83.4406C47.3429 84.3042 47.4815 84.9352 47.7607 85.3331C48.0377 85.7309 48.473 85.9301 49.0631 85.9301C49.593 85.9301 50.0909 85.7696 50.557 85.4486C51.024 85.1278 51.4362 84.6516 51.7954 84.0185V76.2686H55.6315V88.4317H51.7954V86.9049V86.9049Z" fill="#234277"/>
<path d="M58.3901 88.4326V76.2693H62.2009V77.7963C62.791 77.1885 63.4175 76.742 64.0803 76.4553C64.7432 76.1683 65.4808 76.0254 66.293 76.0254C67.2009 76.0254 67.9493 76.2089 68.5385 76.5771C69.1298 76.9445 69.5838 77.5059 69.9004 78.2577C70.6787 77.4368 71.4161 76.8598 72.1119 76.5254C72.8098 76.1914 73.612 76.0254 74.519 76.0254C75.8532 76.0254 76.8745 76.4301 77.5846 77.2377C78.2946 78.0456 78.6507 79.2118 78.6507 80.7341V88.4326H74.8125V81.2597C74.8125 80.3614 74.6783 79.7208 74.409 79.3361C74.1399 78.9513 73.7024 78.7579 73.0945 78.7579C72.5646 78.7579 72.071 78.9182 71.6183 79.2395C71.1654 79.5605 70.7466 80.0418 70.3621 80.6827V88.4326H66.6405V81.2597C66.6405 80.3705 66.5061 79.7305 66.237 79.3417C65.9665 78.9525 65.5278 78.7579 64.9203 78.7579C64.399 78.7579 63.9089 78.9182 63.4515 79.2395C62.9945 79.5605 62.5779 80.0418 62.2009 80.6827V88.4326H58.3901V88.4326Z" fill="#234277"/>
<path d="M81.3838 76.2686H85.2198V88.4319H81.3838V76.2686Z" fill="#234277"/>
<path d="M26.8781 81.4861C26.8781 80.1099 25.7823 78.9515 24.4052 78.9515C22.5968 78.9515 21.3792 80.0746 21.3792 82.3379C21.3792 84.3076 22.4563 85.6739 24.4303 85.6739C25.8932 85.6739 26.8781 84.5065 26.8781 83.1402V81.4861V81.4861ZM26.4976 87.5345C26.0284 87.928 25.5174 88.2184 24.9656 88.4063C24.4139 88.5954 23.8038 88.6889 23.1364 88.6889C21.434 88.6889 20.0526 88.1051 18.9916 86.9379C17.9311 85.7705 17.4014 84.2459 17.4014 82.3631C17.4014 80.4638 17.9311 78.9294 18.9916 77.7566C20.0526 76.586 21.434 75.999 23.1364 75.999C23.83 75.999 24.4631 76.1025 25.0348 76.3081C25.6084 76.5125 26.1471 76.8334 26.6528 77.2696V76.2686H30.3349V88.4328H26.4976V87.5345V87.5345Z" fill="#234277"/>
<path d="M85.3482 72.3295C85.3482 73.4639 84.4281 74.3828 83.2949 74.3828C82.1618 74.3828 81.2417 73.4639 81.2417 72.3295C81.2417 71.1955 82.1618 70.2764 83.2949 70.2764C84.4281 70.2764 85.3482 71.1955 85.3482 72.3295Z" fill="#234277"/>
<path d="M1.83293 103V96H3.17293L6.15293 100.94H5.44293L8.37293 96H9.70293L9.72293 103H8.20293L8.19293 98.33H8.47293L6.13293 102.26H5.40293L3.01293 98.33H3.35293V103H1.83293ZM14.3837 103V96H16.0037V103H14.3837ZM24.015 103.12C23.475 103.12 22.9716 103.033 22.505 102.86C22.045 102.68 21.645 102.427 21.305 102.1C20.965 101.773 20.6983 101.39 20.505 100.95C20.3183 100.51 20.225 100.027 20.225 99.5C20.225 98.9733 20.3183 98.49 20.505 98.05C20.6983 97.61 20.965 97.2267 21.305 96.9C21.6516 96.5733 22.055 96.3233 22.515 96.15C22.975 95.97 23.4783 95.88 24.025 95.88C24.6316 95.88 25.1783 95.9867 25.665 96.2C26.1583 96.4067 26.5716 96.7133 26.905 97.12L25.865 98.08C25.625 97.8067 25.3583 97.6033 25.065 97.47C24.7716 97.33 24.4516 97.26 24.105 97.26C23.7783 97.26 23.4783 97.3133 23.205 97.42C22.9316 97.5267 22.695 97.68 22.495 97.88C22.295 98.08 22.1383 98.3167 22.025 98.59C21.9183 98.8633 21.865 99.1667 21.865 99.5C21.865 99.8333 21.9183 100.137 22.025 100.41C22.1383 100.683 22.295 100.92 22.495 101.12C22.695 101.32 22.9316 101.473 23.205 101.58C23.4783 101.687 23.7783 101.74 24.105 101.74C24.4516 101.74 24.7716 101.673 25.065 101.54C25.3583 101.4 25.625 101.19 25.865 100.91L26.905 101.87C26.5716 102.277 26.1583 102.587 25.665 102.8C25.1783 103.013 24.6283 103.12 24.015 103.12ZM32.4889 98.82H35.8589V100.08H32.4889V98.82ZM32.6089 101.7H36.4189V103H30.9989V96H36.2889V97.3H32.6089V101.7Z" fill="#DA4042"/>
<defs>
<linearGradient id="paint0_linear_6668_66457" x1="-0.517205" y1="60.0846" x2="34.423" y2="24.3552" gradientUnits="userSpaceOnUse">
<stop stop-color="#3B96D1"/>
<stop offset="1" stop-color="#8CC86B"/>
</linearGradient>
<linearGradient id="paint1_linear_6668_66457" x1="-0.652745" y1="4.58033" x2="33.0256" y2="39.0168" gradientUnits="userSpaceOnUse">
<stop stop-color="#EF4B49"/>
<stop offset="1" stop-color="#FDB92E"/>
</linearGradient>
</defs>
</svg>
