<svg width="592" height="662" viewBox="0 0 592 662" fill="none" xmlns="http://www.w3.org/2000/svg">
<path fill-rule="evenodd" clip-rule="evenodd" d="M285.849 556.563L372.761 548.556L360.178 570.67L384.669 584.483C385.622 585.021 386.214 586.028 386.221 587.122C386.231 588.806 384.873 590.18 383.189 590.19C355.241 590.359 334.668 590.379 321.47 590.251C306.528 590.106 294.185 589.824 284.44 589.406L285.849 556.563ZM41.4266 479.544L64.3035 534.449L35.4762 545.044L5.4288 582.458C4.76904 583.279 3.73201 583.702 2.68591 583.576C1.01338 583.375 -0.179212 581.855 0.0221787 580.183L10.6611 491.827L41.4266 479.544Z" fill="#002D6F"/>
<path fill-rule="evenodd" clip-rule="evenodd" d="M373.986 340.376L457.575 392.148C476.853 404.088 483.15 429.188 471.79 448.814L406.776 561.138L275.535 561.11L402.582 432.646L301.161 394.899L210.335 452.309L81.9235 578.296L31.1328 456.43L153.986 410.913L222.617 368.21L252.738 332.369L373.986 340.376Z" fill="white"/>
<path d="M402.584 432.993L276.821 560.158L406.363 560.185L471.212 448.147C482.417 428.788 476.206 404.03 457.191 392.253L373.723 340.556L252.906 332.578L222.913 368.266L154.205 411.018L154.102 411.069L31.8068 456.379L82.0434 576.915L209.852 451.52L209.947 451.444L301.012 393.884L402.311 431.585L405.102 428.095C405.3 427.849 405.66 427.809 405.906 428.006C406.153 428.203 406.193 428.563 405.996 428.81L403.439 432.005L403.528 432.038L403.408 432.159L405.852 433.687C406.12 433.854 406.201 434.207 406.034 434.475C405.867 434.743 405.514 434.824 405.246 434.657L402.584 432.993ZM222.154 367.391L222.096 367.461L222.232 367.343L222.154 367.391ZM222.154 367.391L252.404 331.398L374.083 339.434L457.793 391.281C477.334 403.383 483.717 428.826 472.202 448.72L407.023 561.329L274.082 561.301L401.47 432.493L301.144 395.153L210.609 452.379L81.6379 578.915L30.293 455.72L153.65 410.016L222.154 367.391ZM153.65 410.016L153.601 410.047L153.704 409.996L153.65 410.016Z" fill="#002D6F"/>
<path fill-rule="evenodd" clip-rule="evenodd" d="M293.453 221.035L350.713 221.7L406.643 227.064L527.56 234.761L496.676 94.4495L547.387 94.8307C576.368 202.242 590.915 257.61 591.026 260.934C591.675 280.296 576.504 296.518 557.142 297.167L388.774 284.709L373.141 337.326L297.266 333.895L293.453 221.035Z" fill="white"/>
<path d="M373.941 337.936L292.883 330.988L293.268 220.456L293.844 220.463L351.152 221.13L407.065 226.493L527.223 234.142L496.348 93.8721L548.211 94.262L548.324 94.6817C577.399 202.441 591.868 257.516 591.982 260.915C592.641 280.593 577.224 297.079 557.485 297.737L389.575 285.313L373.941 337.936ZM294.03 329.938L373.11 336.716L388.741 284.105L389.201 284.139L557.508 296.595C576.554 295.957 591.477 280 590.839 260.953C590.73 257.708 576.145 202.189 547.333 95.3993L497.774 95.0267L528.667 235.38L527.909 235.332L406.974 227.633L351.091 222.272L294.408 221.614L294.03 329.938Z" fill="#002D6F"/>
<path fill-rule="evenodd" clip-rule="evenodd" d="M336.918 338.851L374.02 339.851L376.006 331.844L336.918 330.463V338.851Z" fill="#002D6F"/>
<path fill-rule="evenodd" clip-rule="evenodd" d="M145.898 156.98L92.2771 336.628C88.784 348.331 95.0998 360.714 106.624 364.758L129.503 372.785L245.413 295.385L245.493 221.035L192.033 242.006L221.773 156.98L201.184 107.413L179.451 118.089L145.898 156.98Z" fill="white"/>
<path d="M222.882 156.408H145.775L92.0316 336.464C88.4512 348.46 94.9248 361.153 106.737 365.297L129.886 373.42L246.287 295.691L246.368 220.196L193.287 241.018L222.882 156.408ZM146.627 157.552H221.27L191.385 242.993L245.223 221.874L245.144 295.079L129.726 372.151L107.116 364.218C95.8797 360.276 89.7219 348.202 93.1277 336.792L146.627 157.552Z" fill="#002D6F"/>
<path fill-rule="evenodd" clip-rule="evenodd" d="M224.06 176.806L219.908 194.589L134.84 172.993L138.69 154.692L224.06 176.806Z" fill="white"/>
<path d="M224.59 176.351L219.978 194.849L134.148 173.449L138.76 154.951L224.59 176.351ZM223.203 177.184L139.593 156.338L135.535 172.616L219.145 193.462L223.203 177.184Z" fill="#002D6F"/>
<path d="M144.039 166.091C143.403 168.645 144.957 171.232 147.511 171.868C150.065 172.505 152.652 170.951 153.288 168.397C153.925 165.843 152.371 163.256 149.817 162.619C147.263 161.983 144.676 163.537 144.039 166.091ZM145.149 166.368C145.633 164.427 147.599 163.245 149.54 163.729C151.481 164.213 152.662 166.179 152.179 168.12C151.695 170.061 149.729 171.242 147.788 170.758C145.847 170.275 144.665 168.309 145.149 166.368Z" fill="#002D6F"/>
<path d="M334.651 323.945L319.437 322.881C316.076 322.646 313.161 325.18 312.926 328.541L312.181 339.191C311.946 342.552 314.48 345.468 317.841 345.703L333.056 346.766C336.417 347.001 339.332 344.467 339.567 341.106L340.311 330.456C340.546 327.095 338.012 324.18 334.651 323.945Z" fill="white"/>
<path d="M319.433 322.715L334.647 323.778C338.008 324.014 340.543 326.929 340.308 330.29L339.563 340.94C339.328 344.301 336.413 346.835 333.052 346.6L317.837 345.536C314.476 345.301 311.942 342.386 312.177 339.025L312.922 328.375C313.157 325.014 316.072 322.48 319.433 322.715ZM319.354 323.856C316.623 323.665 314.254 325.724 314.063 328.455L313.318 339.104C313.127 341.835 315.186 344.204 317.917 344.395L333.131 345.459C335.862 345.65 338.231 343.591 338.422 340.86L339.166 330.21C339.357 327.479 337.298 325.111 334.568 324.92L319.354 323.856Z" fill="#002D6F"/>
<path fill-rule="evenodd" clip-rule="evenodd" d="M243.938 474.717L244.661 159.268H245.382V157.695H113.488V116.961L244.73 0.654297H293.44V116.961H330.819V157.695H293.44V159.268H293.453V497.083H293.44V589.75H330.819V630.484H293.44V661.035H245.382V630.484H113.488V589.75L243.938 474.717ZM164.66 589.735H244.73L244.348 523.011L164.66 589.735ZM164.58 117.327H244.649L244.348 50.221L164.58 117.327Z" fill="#EEF5FF"/>
<path d="M243.669 474.458L244.392 159.266C244.392 158.951 244.648 158.696 244.964 158.696H245.112V158.266H113.791C113.475 158.266 113.219 158.01 113.219 157.694V116.96C113.219 116.797 113.289 116.641 113.411 116.532L244.653 0.226167C244.757 0.133462 244.892 0.0822754 245.032 0.0822754H293.743C294.059 0.0822754 294.315 0.338334 294.315 0.654198V116.389H331.121C331.437 116.389 331.693 116.645 331.693 116.96V157.694C331.693 158.01 331.437 158.266 331.121 158.266H294.315V159.145C294.323 159.185 294.328 159.225 294.328 159.267V497.083C294.328 497.125 294.323 497.166 294.315 497.206V589.178H331.121C331.437 589.178 331.693 589.434 331.693 589.75V630.484C331.693 630.8 331.437 631.056 331.121 631.056H294.315V661.035C294.315 661.35 294.059 661.606 293.743 661.606H245.684C245.368 661.606 245.112 661.35 245.112 661.035V631.056H113.791C113.475 631.056 113.219 630.8 113.219 630.484V589.75C113.219 589.586 113.289 589.43 113.412 589.321L243.669 474.458ZM245.112 158.696H245.684L245.112 159.267V158.696ZM244.812 474.718C244.812 474.882 244.741 475.038 244.619 475.146L114.363 590.008V629.912H245.684C246 629.912 246.256 630.168 246.256 630.484V660.463H293.171V630.484C293.171 630.168 293.427 629.912 293.743 629.912H330.549V590.322H293.743C293.427 590.322 293.171 590.066 293.171 589.75V497.083C293.171 497.041 293.175 497 293.184 496.961V159.39C293.175 159.35 293.171 159.309 293.171 159.267V157.694C293.171 157.379 293.427 157.122 293.743 157.122H330.549V117.532H293.743C293.427 117.532 293.171 117.276 293.171 116.96V1.22612H245.249L114.363 117.218V157.122H245.684C246 157.122 246.256 157.379 246.256 157.694V159.267C246.256 159.583 246 159.839 245.684 159.839H245.534L244.812 474.718ZM164.963 590.307C164.428 590.307 164.186 589.639 164.596 589.296L244.283 522.572C244.655 522.261 245.22 522.523 245.223 523.007L245.604 589.732C245.606 590.049 245.349 590.307 245.032 590.307H164.963ZM244.457 589.163L244.086 524.229L166.537 589.163H244.457ZM164.882 117.898C164.349 117.898 164.106 117.232 164.514 116.889L244.282 49.7832C244.654 49.471 245.22 49.7333 245.223 50.2183L245.524 117.324C245.525 117.641 245.269 117.898 244.952 117.898H164.882ZM244.377 116.755L244.084 51.4448L166.451 116.755H244.377Z" fill="#002D6F"/>
<path d="M222.154 426.927C148.473 426.927 113.488 392.764 113.488 330.577C113.488 268.657 148.473 234.761 222.154 234.761C295.569 234.761 330.819 268.924 330.819 330.577C330.819 392.498 295.569 426.927 222.154 426.927ZM221.772 386.511C264.204 386.511 283.54 365.47 283.54 330.578C283.54 295.952 264.204 275.177 221.772 275.177C179.341 275.177 160.005 295.686 160.005 330.578C160.005 365.736 179.341 386.511 221.772 386.511Z" fill="#EEF5FF"/>
<path d="M222.456 427.499C149.78 427.499 113.219 394.282 113.219 330.578C113.219 267.175 149.749 234.189 222.456 234.189C294.887 234.189 331.693 267.431 331.693 330.578C331.693 394.025 294.857 427.499 222.456 427.499ZM222.456 426.356C294.248 426.356 330.549 393.368 330.549 330.578C330.549 268.091 294.28 235.333 222.456 235.333C150.356 235.333 114.363 267.834 114.363 330.578C114.363 393.625 150.388 426.356 222.456 426.356ZM222.075 387.084C180.649 387.084 159.735 367.303 159.735 330.578C159.735 294.156 180.623 274.605 222.075 274.605C263.423 274.605 284.414 294.321 284.414 330.578C284.414 367.138 263.399 387.084 222.075 387.084ZM222.075 385.94C262.78 385.94 283.271 366.492 283.271 330.578C283.271 294.97 262.807 275.749 222.075 275.749C181.239 275.749 160.879 294.805 160.879 330.578C160.879 366.657 181.267 385.94 222.075 385.94Z" fill="#002D6F"/>
<path d="M151.703 410.531C125.964 394.666 113.488 367.584 113.488 330.577C113.488 293.392 126.194 266.313 152.416 250.613L174.942 289.826C164.828 299.313 160.005 313.152 160.005 330.578C160.005 347.563 164.517 361.191 173.967 370.742L151.703 410.531ZM292.604 410.531L270.341 370.742C279.79 361.191 284.303 347.563 284.303 330.578C284.303 313.152 279.48 299.313 269.365 289.826L291.892 250.613C318.113 266.313 330.819 293.392 330.819 330.577C330.819 367.584 318.343 394.666 292.604 410.531Z" fill="#002D6F"/>
<path d="M147.526 335.19C146.892 339.947 142.819 343.617 137.888 343.617C132.958 343.617 128.885 339.947 128.251 335.19L127.617 335.824C127.394 336.047 127.031 336.047 126.808 335.824C126.585 335.601 126.585 335.239 126.808 335.015L128.738 333.086L130.667 335.015C130.891 335.239 130.891 335.601 130.667 335.824C130.444 336.047 130.082 336.047 129.858 335.824L129.443 335.408C130.125 339.242 133.353 342.194 137.317 342.455V326.033C137.195 326.014 137.073 325.987 136.951 325.955C135.019 325.437 133.872 323.451 134.39 321.519C134.907 319.586 136.894 318.44 138.826 318.957C140.758 319.475 141.905 321.461 141.387 323.394C141.006 324.817 139.827 325.814 138.46 326.034V342.455C142.424 342.194 145.652 339.242 146.334 335.408L145.918 335.824C145.695 336.047 145.333 336.047 145.11 335.824C144.886 335.601 144.886 335.239 145.11 335.015L147.039 333.086L148.969 335.015C149.192 335.239 149.192 335.601 148.969 335.824C148.745 336.047 148.383 336.047 148.16 335.824L147.526 335.19ZM137.247 324.85C138.569 325.204 139.928 324.42 140.282 323.098C140.637 321.775 139.852 320.416 138.53 320.062C137.208 319.708 135.849 320.493 135.495 321.815C135.14 323.137 135.925 324.496 137.247 324.85Z" fill="white"/>
<path d="M306.988 342.455V326.033C307.11 326.014 307.232 325.987 307.354 325.955C309.286 325.437 310.433 323.451 309.915 321.519C309.397 319.586 307.411 318.44 305.479 318.957C303.546 319.475 302.4 321.461 302.917 323.394C303.299 324.817 304.477 325.814 305.844 326.034V342.455C301.881 342.194 298.653 339.242 297.971 335.408L298.386 335.824C298.61 336.047 298.972 336.047 299.195 335.824C299.418 335.601 299.418 335.239 299.195 335.015L297.265 333.086L295.336 335.015C295.113 335.239 295.113 335.601 295.336 335.824C295.559 336.047 295.921 336.047 296.145 335.824L296.779 335.19C297.412 339.947 301.486 343.617 306.416 343.617C311.347 343.617 315.42 339.947 316.053 335.19L316.688 335.824C316.911 336.047 317.273 336.047 317.497 335.824C317.72 335.601 317.72 335.239 317.497 335.015L315.567 333.086L313.637 335.015C313.414 335.239 313.414 335.601 313.637 335.824C313.861 336.047 314.223 336.047 314.446 335.824L314.862 335.408C314.179 339.242 310.951 342.194 306.988 342.455ZM307.058 324.85C305.736 325.204 304.377 324.42 304.022 323.098C303.668 321.775 304.453 320.416 305.775 320.062C307.097 319.708 308.456 320.493 308.81 321.815C309.164 323.137 308.38 324.496 307.058 324.85Z" fill="white"/>
<path fill-rule="evenodd" clip-rule="evenodd" d="M454.353 107.413L403.701 117.124C409.236 123.241 416.308 126.455 424.916 126.767C433.525 127.078 445.3 126.084 460.24 123.785L454.353 107.413Z" fill="white"/>
<path d="M441.92 108.294L441.639 107.185L402.5 117.114L403.137 117.818C408.777 124.052 415.994 127.332 424.756 127.649C433.406 127.962 445.214 126.965 460.187 124.661L460.013 123.531C445.105 125.824 433.364 126.816 424.797 126.506C416.676 126.212 409.967 123.297 404.638 117.751L441.92 108.294Z" fill="#002D6F"/>
<mask id="mask0_1087_39502" style="mask-type:alpha" maskUnits="userSpaceOnUse" x="306" y="94" width="107" height="128">
<path d="M351.024 221.035L358.65 190.532L372.969 192.534C385.073 194.226 396.563 186.702 399.85 174.93L411.245 134.123C415.889 117.492 406.172 100.245 389.541 95.6013C386.803 94.8368 383.974 94.4492 381.132 94.4492H355.475C346.114 94.4492 337.931 100.764 335.558 109.819L306.414 221.035H351.024Z" fill="white"/>
</mask>
<g mask="url(#mask0_1087_39502)">
<path d="M351.024 221.035L358.65 190.533L372.969 192.534C385.073 194.226 396.563 186.702 399.85 174.93L411.245 134.124C415.889 117.493 406.172 100.246 389.541 95.6015C386.803 94.837 383.974 94.4495 381.132 94.4495H355.475C346.114 94.4495 337.931 100.764 335.558 109.82L306.414 221.035H351.024Z" fill="white"/>
<mask id="mask1_1087_39502" style="mask-type:alpha" maskUnits="userSpaceOnUse" x="306" y="94" width="107" height="128">
<path d="M351.02 221.035L358.646 190.532L372.965 192.534C385.07 194.226 396.559 186.702 399.846 174.93L411.241 134.123C415.885 117.492 406.168 100.245 389.537 95.601C386.799 94.8366 383.97 94.449 381.128 94.449H355.471C346.11 94.449 337.927 100.764 335.554 109.819L306.41 221.035H351.02Z" fill="white"/>
</mask>
<g mask="url(#mask1_1087_39502)">
<path d="M351.02 221.035L358.646 190.532L372.965 192.534C385.07 194.226 396.559 186.702 399.846 174.93L411.241 134.123C415.885 117.492 406.168 100.245 389.537 95.6013C386.799 94.8368 383.97 94.4492 381.128 94.4492H355.471C346.11 94.4492 337.927 100.764 335.554 109.819L306.41 221.035H351.02Z" fill="white"/>
<path fill-rule="evenodd" clip-rule="evenodd" d="M406.204 139.929L410.121 139.44L409.609 147.345C409.534 148.514 408.524 149.401 407.355 149.325C407.302 149.322 407.249 149.317 407.196 149.309C405.945 149.133 405.073 147.977 405.249 146.725L406.204 139.929Z" fill="#002D6F"/>
</g>
<path d="M372.889 193.1C385.277 194.832 397.035 187.132 400.4 175.084L411.795 134.277C416.524 117.342 406.629 99.7796 389.694 95.0506C386.906 94.2721 384.025 93.8774 381.131 93.8774H355.474C345.853 93.8774 337.442 100.368 335.004 109.674L305.672 221.607H351.47L359.079 191.17L372.889 193.1ZM350.576 220.463H307.154L336.11 109.964C338.417 101.161 346.373 95.0213 355.474 95.0213H381.131C383.921 95.0213 386.698 95.4018 389.386 96.1523C405.713 100.711 415.252 117.643 410.693 133.97L399.298 174.776C396.088 186.272 384.868 193.62 373.047 191.968L358.218 189.895L350.576 220.463Z" fill="#002D6F"/>
</g>
<mask id="mask2_1087_39502" style="mask-type:alpha" maskUnits="userSpaceOnUse" x="314" y="94" width="72" height="64">
<path d="M365.884 135.615L363.705 133.436C359.004 128.735 351.395 128.692 346.642 133.34C342.121 137.76 342.04 145.008 346.46 149.529C346.585 149.657 346.713 149.782 346.844 149.904L348.394 151.347C340.203 154.872 329.007 157.004 314.805 157.742L335.035 106.078C337.781 99.0643 344.544 94.4495 352.076 94.4495H385.342C378.28 112.751 371.794 126.473 365.884 135.615Z" fill="white"/>
</mask>
<g mask="url(#mask2_1087_39502)">
<path d="M365.884 135.615L363.705 133.436C359.004 128.735 351.395 128.692 346.642 133.34C342.121 137.76 342.04 145.008 346.46 149.529C346.585 149.657 346.713 149.782 346.844 149.904L348.394 151.347C340.203 154.872 329.007 157.004 314.805 157.742L335.035 106.078C337.781 99.0643 344.544 94.4495 352.076 94.4495H385.342C378.28 112.751 371.794 126.473 365.884 135.615Z" fill="#002D6F"/>
</g>
<path fill-rule="evenodd" clip-rule="evenodd" d="M355.223 78.8171L375.049 62.8032L389.157 78.8171" fill="white"/>
<path fill-rule="evenodd" clip-rule="evenodd" d="M336.918 78.8169C336.918 78.8169 341.112 84.0277 349.5 94.4495H392.585L407.836 78.8169C360.557 78.8169 336.918 78.8169 336.918 78.8169Z" fill="white"/>
<path d="M374.982 63.9735L388.728 79.5761L389.586 78.82L375.116 62.395L354.863 78.7532L355.582 79.643L374.982 63.9735Z" fill="#002D6F"/>
<path d="M336.475 79.557L349.057 95.1896C349.166 95.3244 349.33 95.4029 349.503 95.4029H392.588C392.742 95.4029 392.89 95.3407 392.997 95.2303L408.248 79.5978C408.602 79.2355 408.345 78.6265 407.839 78.6265H336.921C336.44 78.6265 336.174 79.1828 336.475 79.557ZM406.482 79.7703L392.347 94.259H349.777L338.115 79.7703H406.482Z" fill="#002D6F"/>
<path fill-rule="evenodd" clip-rule="evenodd" d="M404.024 140.966L405.167 166.893L393.348 158.124" fill="white"/>
<path fill-rule="evenodd" clip-rule="evenodd" d="M309.848 203.496H338.143L338.906 221.482L349.2 203.496H358.652L352.552 221.798L304.129 221.416L309.848 203.496Z" fill="white"/>
<path d="M390.098 139.415L389.196 145.837C389.02 147.089 387.863 147.96 386.612 147.784C385.361 147.609 384.489 146.452 384.665 145.201L385.596 138.575L373.799 136.372C373.489 136.314 373.284 136.015 373.342 135.705C373.4 135.394 373.699 135.19 374.009 135.248L393.454 138.879C393.765 138.936 393.97 139.235 393.912 139.546C393.854 139.856 393.555 140.061 393.244 140.003L390.098 139.415ZM404.112 140.019L410.017 138.879C410.328 138.819 410.628 139.022 410.687 139.332C410.747 139.642 410.544 139.942 410.234 140.002L404.62 141.086L405.741 166.487C405.762 166.968 405.215 167.258 404.828 166.971L403.077 165.672L405.169 172.994C402.532 172.274 400.396 170.343 399.414 167.792L399.069 166.893C394.317 169.144 389.071 170.149 383.825 169.814L373.904 169.181L394.757 159.499L393.009 158.202C392.755 158.013 392.702 157.655 392.89 157.401C393.078 157.148 393.437 157.095 393.69 157.283L404.545 165.336L403.454 140.61C403.44 140.294 403.685 140.027 404 140.013C404.038 140.012 404.075 140.014 404.112 140.019Z" fill="#002D6F"/>
<path d="M339.184 222.264L331.221 250.767C331.136 251.071 330.82 251.249 330.516 251.164C330.212 251.079 330.034 250.763 330.119 250.459L337.999 222.255L304.126 221.988C303.741 221.985 303.469 221.61 303.586 221.243L309.305 203.322C309.381 203.085 309.601 202.924 309.85 202.924H338.145C338.452 202.924 338.704 203.166 338.717 203.472L339.395 219.479L348.706 203.212C348.808 203.034 348.997 202.924 349.202 202.924H358.654C359.045 202.924 359.32 203.307 359.197 203.677L353.096 221.979C353.018 222.214 352.797 222.372 352.549 222.37L339.184 222.264ZM304.912 220.851L338.32 221.114L337.597 204.068H310.268L304.912 220.851ZM352.143 221.223L357.861 204.068H349.534L339.771 221.125L352.143 221.223Z" fill="#002D6F"/>
<path fill-rule="evenodd" clip-rule="evenodd" d="M410.662 117.326H455.498C457.786 127.494 466.682 132.578 482.188 132.578C485.251 132.578 489.043 131.461 493.563 129.229L505.065 129.146V94.4495H384.961C386.483 107.492 397.531 117.326 410.662 117.326Z" fill="white"/>
<path d="M482.108 133.15C485.245 133.15 489.078 132.029 493.618 129.8L505.557 129.714V93.8777H384.238L384.313 94.5159C385.868 107.846 397.161 117.898 410.582 117.898H454.965C457.479 128.072 466.588 133.15 482.108 133.15ZM504.413 95.0215V128.578L493.347 128.658L493.229 128.716C488.782 130.913 485.07 132.006 482.108 132.006C466.842 132.006 458.195 127.065 455.976 117.201L455.876 116.755H410.582C397.957 116.755 387.299 107.457 385.531 95.0215H504.413Z" fill="#002D6F"/>
<path d="M384.551 94.915C391.857 100.134 400.599 100.134 410.69 94.9585L410.168 93.9407C400.433 98.9332 392.144 98.9332 385.216 93.9842L384.551 94.915Z" fill="#002D6F"/>
<path d="M522.985 92.9246H504.684V162.318H522.985V92.9246Z" fill="white"/>
<path d="M504.223 92.9246H523.287V162.318H504.223V92.9246ZM505.367 161.174H522.143V94.0684H505.367V161.174Z" fill="#002D6F"/>
<path d="M513.754 154.502C516.387 154.502 518.52 152.368 518.52 149.736C518.52 147.103 516.387 144.969 513.754 144.969C511.122 144.969 508.988 147.103 508.988 149.736C508.988 152.368 511.122 154.502 513.754 154.502ZM513.754 153.358C511.754 153.358 510.132 151.736 510.132 149.736C510.132 147.735 511.754 146.113 513.754 146.113C515.755 146.113 517.376 147.735 517.376 149.736C517.376 151.736 515.755 153.358 513.754 153.358Z" fill="#002D6F"/>
<path d="M293.834 116.373L114.25 116.755L114.252 117.898L293.836 117.517L293.834 116.373Z" fill="#002D6F"/>
<path d="M293.834 157.361L244.949 158.124" stroke="#002D6F" stroke-width="1.5"/>
<path d="M278.01 631.104H261.615V660.272C261.615 660.587 261.359 660.844 261.043 660.844C260.727 660.844 260.471 660.587 260.471 660.272V631.104H245.41V629.96H294.214V631.104H279.154V660.272C279.154 660.587 278.898 660.844 278.582 660.844C278.266 660.844 278.01 660.587 278.01 660.272V631.104Z" fill="#002D6F"/>
<path d="M330.669 589.163H114.252C113.936 589.163 113.68 589.419 113.68 589.735C113.68 590.05 113.936 590.306 114.252 590.306H330.669C330.985 590.306 331.241 590.05 331.241 589.735C331.241 589.419 330.985 589.163 330.669 589.163Z" fill="#002D6F"/>
<path fill-rule="evenodd" clip-rule="evenodd" d="M203.472 105.888H209.572C212.941 105.888 215.673 108.619 215.673 111.988V156.217C215.673 161.271 211.576 165.368 206.522 165.368C201.468 165.368 197.371 161.271 197.371 156.217V111.988C197.371 108.619 200.102 105.888 203.472 105.888Z" fill="white"/>
<path fill-rule="evenodd" clip-rule="evenodd" d="M221.772 105.888H227.873C231.242 105.888 233.973 108.619 233.973 111.988V156.217C233.973 161.271 229.876 165.368 224.823 165.368C219.769 165.368 215.672 161.271 215.672 156.217V111.988C215.672 108.619 218.403 105.888 221.772 105.888Z" fill="white"/>
<path fill-rule="evenodd" clip-rule="evenodd" d="M240.073 105.888H246.174C249.543 105.888 252.274 108.619 252.274 111.988V156.217C252.274 161.271 248.177 165.368 243.123 165.368C238.07 165.368 233.973 161.271 233.973 156.217V111.988C233.973 108.619 236.704 105.888 240.073 105.888Z" fill="white"/>
<path d="M233.895 158.514C232.737 162.475 229.078 165.368 224.744 165.368C220.409 165.368 216.75 162.475 215.593 158.514C214.436 162.475 210.777 165.368 206.442 165.368C201.178 165.368 196.91 161.1 196.91 155.836V111.988C196.91 108.619 199.641 105.888 203.011 105.888H209.874C212.495 105.888 214.73 107.541 215.593 109.861C216.456 107.541 218.691 105.888 221.312 105.888H228.175C230.796 105.888 233.031 107.541 233.895 109.861C234.758 107.541 236.993 105.888 239.614 105.888H246.477C249.846 105.888 252.577 108.619 252.577 111.988V155.836C252.577 161.1 248.31 165.368 243.045 165.368C238.711 165.368 235.052 162.475 233.895 158.514ZM203.011 107.032C200.273 107.032 198.054 109.251 198.054 111.988V155.836C198.054 160.469 201.81 164.224 206.442 164.224C211.075 164.224 214.83 160.469 214.83 155.836V111.988C214.83 109.251 212.611 107.032 209.874 107.032H203.011ZM221.312 107.032C218.575 107.032 216.356 109.251 216.356 111.988V155.836C216.356 160.469 220.111 164.224 224.744 164.224C229.376 164.224 233.132 160.469 233.132 155.836V111.988C233.132 109.251 230.913 107.032 228.175 107.032H221.312ZM239.614 107.032C236.876 107.032 234.657 109.251 234.657 111.988V155.836C234.657 160.469 238.413 164.224 243.045 164.224C247.678 164.224 251.433 160.469 251.433 155.836V111.988C251.433 109.251 249.214 107.032 246.477 107.032H239.614Z" fill="#002D6F"/>
<path d="M198.928 107.289L181.008 116.821L181.545 117.831L199.465 108.299L198.928 107.289Z" fill="#002D6F"/>
<path fill-rule="evenodd" clip-rule="evenodd" d="M148.425 249.343C150.614 248.08 153.412 248.829 154.675 251.018L176.408 288.66C177.672 290.849 176.922 293.647 174.734 294.911C172.545 296.174 169.747 295.424 168.484 293.236L146.75 255.593C145.487 253.405 146.237 250.606 148.425 249.343ZM148.425 412.625C146.602 411.572 145.977 409.24 147.03 407.416L169.525 368.453C170.578 366.629 172.91 366.004 174.734 367.057C176.557 368.11 177.182 370.442 176.129 372.265L153.634 411.229C152.581 413.053 150.249 413.677 148.425 412.625ZM295.843 249.431C297.849 250.59 298.536 253.155 297.378 255.161L276.026 292.143C274.868 294.149 272.303 294.836 270.297 293.678C268.291 292.52 267.603 289.955 268.762 287.949L290.113 250.967C291.271 248.961 293.837 248.273 295.843 249.431ZM295.791 411.685C293.603 412.948 290.805 412.199 289.541 410.01L268.19 373.028C266.926 370.84 267.676 368.041 269.864 366.778C272.053 365.514 274.851 366.264 276.114 368.453L297.466 405.435C298.73 407.623 297.98 410.422 295.791 411.685Z" fill="white"/>
<path d="M148.565 249.013C150.936 247.644 153.967 248.456 155.336 250.827L177.069 288.47C178.438 290.841 177.626 293.872 175.255 295.241C172.884 296.61 169.853 295.797 168.484 293.427L146.751 255.784C145.382 253.413 146.194 250.382 148.565 249.013ZM147.741 255.212L169.474 292.855C170.527 294.678 172.859 295.303 174.683 294.25C176.507 293.197 177.131 290.865 176.079 289.042L154.345 251.399C153.293 249.575 150.961 248.951 149.137 250.003C147.313 251.056 146.689 253.388 147.741 255.212ZM148.565 412.676C146.194 411.307 145.382 408.275 146.751 405.905L168.484 368.262C169.853 365.891 172.884 365.079 175.255 366.448C177.626 367.816 178.438 370.848 177.069 373.219L155.336 410.861C153.967 413.232 150.936 414.044 148.565 412.676ZM149.137 411.685C150.961 412.738 153.293 412.113 154.345 410.289L176.079 372.647C177.131 370.823 176.507 368.491 174.683 367.438C172.859 366.385 170.527 367.01 169.474 368.834L147.741 406.477C146.689 408.3 147.313 410.632 149.137 411.685ZM296.694 249.013C299.065 250.382 299.877 253.413 298.508 255.784L276.775 293.427C275.406 295.797 272.375 296.61 270.004 295.241C267.633 293.872 266.821 290.841 268.19 288.47L289.923 250.827C291.292 248.456 294.323 247.644 296.694 249.013ZM290.914 251.399L269.181 289.042C268.128 290.865 268.753 293.197 270.576 294.25C272.4 295.303 274.732 294.678 275.785 292.855L297.518 255.212C298.57 253.388 297.946 251.056 296.122 250.003C294.298 248.951 291.967 249.575 290.914 251.399ZM296.694 412.676C294.323 414.044 291.292 413.232 289.923 410.861L268.19 373.219C266.821 370.848 267.633 367.816 270.004 366.448C272.375 365.079 275.406 365.891 276.775 368.262L298.508 405.905C299.877 408.275 299.065 411.307 296.694 412.676ZM296.122 411.685C297.946 410.632 298.57 408.3 297.518 406.477L275.785 368.834C274.732 367.01 272.4 366.385 270.576 367.438C268.753 368.491 268.128 370.823 269.181 372.647L290.914 410.289C291.967 412.113 294.298 412.738 296.122 411.685Z" fill="#002D6F"/>
<path d="M199.669 155.488C199.44 155.705 199.078 155.696 198.86 155.467C198.643 155.238 198.652 154.876 198.881 154.658C204.194 149.611 209.15 149.611 213.439 154.705C213.642 154.946 213.611 155.307 213.37 155.51C213.128 155.714 212.767 155.683 212.564 155.441C208.719 150.876 204.524 150.876 199.669 155.488ZM218.352 155.488C218.123 155.705 217.761 155.696 217.543 155.467C217.326 155.238 217.335 154.876 217.564 154.658C222.877 149.611 227.832 149.611 232.121 154.705C232.325 154.946 232.294 155.307 232.052 155.51C231.811 155.714 231.45 155.683 231.247 155.441C227.402 150.876 223.207 150.876 218.352 155.488ZM236.653 155.488C236.424 155.705 236.062 155.696 235.845 155.467C235.627 155.238 235.636 154.876 235.865 154.658C241.178 149.611 246.134 149.611 250.423 154.705C250.626 154.946 250.596 155.307 250.354 155.51C250.112 155.714 249.752 155.683 249.548 155.441C245.703 150.876 241.508 150.876 236.653 155.488Z" fill="#002D6F"/>
<path d="M244.27 474.587L244.611 525.298" stroke="#002D6F" stroke-width="1.5" stroke-linejoin="round"/>
<path d="M244.379 1.03185L245.523 1.0388L245.222 50.6054L244.078 50.5985L244.379 1.03185ZM260.473 0.0821221C260.473 -0.233742 260.729 0.463404 261.045 0.463404C261.361 0.463404 261.617 0.719463 261.617 1.03533L261.426 116.945C261.426 117.261 261.361 117.326 261.045 117.326C260.729 117.326 260.283 117.261 260.283 116.945L260.473 0.0821221ZM278.393 1.03533C278.393 0.719463 278.65 0.463404 278.965 0.463404C279.281 0.463404 279.537 0.719463 279.537 1.03533L279.347 116.945C279.347 117.261 279.091 117.517 278.775 117.517C278.459 117.517 278.203 117.261 278.203 116.945L278.393 1.03533Z" fill="#002D6F"/>
</svg>
